M48
; DRILL file {KiCad 9.0.7} date 2026-03-01T09:40:14+0100
; FORMAT={-:-/ absolute / metric / decimal}
; #@! TF.CreationDate,2026-03-01T09:40:14+01:00
; #@! TF.GenerationSoftware,Kicad,Pcbnew,9.0.7
; #@! TF.FileFunction,MixedPlating,1,2
FMAT,2
METRIC
; #@! TA.AperFunction,Plated,PTH,ComponentDrill
T1C0.660
; #@! TA.AperFunction,Plated,PTH,ComponentDrill
T2C0.750
; #@! TA.AperFunction,Plated,PTH,ComponentDrill
T3C0.800
; #@! TA.AperFunction,Plated,PTH,ComponentDrill
T4C0.900
; #@! TA.AperFunction,Plated,PTH,ViaDrill
T5C1.000
; #@! TA.AperFunction,Plated,PTH,ComponentDrill
T6C1.000
; #@! TA.AperFunction,Plated,PTH,ComponentDrill
T7C1.200
; #@! TA.AperFunction,Plated,PTH,ComponentDrill
T8C2.500
; #@! TA.AperFunction,Plated,PTH,ComponentDrill
T9C3.200
; #@! TA.AperFunction,NonPlated,NPTH,ComponentDrill
T10C2.290
%
G90
G05
T2
X178.01Y-44.7
X179.28Y-44.7
X180.55Y-44.7
T3
X161.609Y-53.709
X164.149Y-53.709
X166.689Y-53.709
X169.229Y-53.709
X185.91Y-39.84
X191.49Y-55.73
X192.16Y-77.84
X192.27Y-73.93
X192.41Y-97.59
X193.53Y-39.84
X199.11Y-55.73
X199.78Y-77.84
X199.89Y-73.93
X200.03Y-97.59
X206.53Y-64.28
X206.53Y-71.9
X214.28Y-87.84
X214.28Y-90.34
X214.28Y-101.84
X214.28Y-104.34
X214.325Y-94.84
X214.325Y-97.34
X214.53Y-81.295
X214.53Y-83.795
X220.16Y-85.84
X220.16Y-88.38
X220.16Y-90.92
X220.16Y-93.46
X220.16Y-96.0
X220.16Y-98.54
X220.16Y-101.08
X220.16Y-103.62
X227.78Y-85.84
X227.78Y-88.38
X227.78Y-90.92
X227.78Y-93.46
X227.78Y-96.0
X227.78Y-98.54
X227.78Y-101.08
X227.78Y-103.62
X238.45Y-106.84
X238.47Y-91.09
X238.53Y-94.22
X238.53Y-101.84
X241.07Y-94.22
X241.07Y-101.84
X246.07Y-106.84
X246.09Y-91.09
X250.725Y-97.19
X253.225Y-97.19
X254.12Y-35.82
X254.12Y-43.44
T4
X206.53Y-74.82
X206.53Y-77.36
T5
X207.57Y-104.21
X207.57Y-110.75
X230.03Y-36.59
X230.03Y-95.84
X231.53Y-98.54
X232.28Y-38.09
X235.53Y-74.59
X235.53Y-88.59
X250.42Y-48.96
X250.42Y-58.31
X255.76Y-87.54
X255.84Y-82.17
T6
X162.172Y-116.07
X162.236Y-85.399
X168.966Y-116.26
X169.03Y-36.99
X169.03Y-44.59
X169.03Y-85.59
X186.78Y-43.84
X186.78Y-50.34
X186.78Y-62.84
X186.78Y-69.34
X186.78Y-82.84
X186.78Y-89.34
X186.78Y-101.84
X186.78Y-108.34
X191.28Y-43.84
X191.28Y-50.34
X191.28Y-62.84
X191.28Y-69.34
X191.28Y-82.84
X191.28Y-89.34
X191.28Y-101.84
X191.28Y-108.34
X226.03Y-30.75
X226.03Y-33.29
X226.03Y-35.83
X226.03Y-38.37
X226.03Y-40.91
X226.03Y-43.45
X226.03Y-45.99
X226.03Y-48.53
X226.03Y-51.07
X226.03Y-53.61
X226.03Y-56.15
X226.03Y-58.69
X226.03Y-61.23
X226.03Y-63.77
X226.03Y-66.31
X226.03Y-68.85
X226.03Y-71.39
X226.03Y-73.93
X226.03Y-76.47
X226.03Y-79.01
X228.21Y-111.43
X229.595Y-114.27
X230.98Y-111.43
X232.365Y-114.27
X233.75Y-111.43
X235.135Y-114.27
X236.52Y-111.43
X237.905Y-114.27
X239.29Y-111.43
X243.81Y-30.75
X243.81Y-33.29
X243.81Y-35.83
X243.81Y-38.37
X243.81Y-40.91
X243.81Y-43.45
X243.81Y-45.99
X243.81Y-48.53
X243.81Y-51.07
X243.81Y-53.61
X243.81Y-56.15
X243.81Y-58.69
X243.81Y-61.23
X243.81Y-63.77
X243.81Y-66.31
X243.81Y-68.85
X243.81Y-71.39
X243.81Y-73.93
X243.81Y-76.47
X243.81Y-79.01
T7
X258.92Y-44.109
X258.92Y-46.649
X258.92Y-49.189
X258.92Y-51.729
X258.92Y-54.269
X258.92Y-56.809
X258.92Y-59.349
X258.92Y-61.889
X258.92Y-64.429
X258.92Y-66.969
X258.92Y-69.509
X258.92Y-72.049
X258.92Y-74.589
X258.92Y-77.129
X258.92Y-79.669
X258.92Y-82.209
T8
X204.47Y-35.11
X204.47Y-117.11
X259.47Y-35.11
X259.47Y-117.11
T9
X221.25Y-112.85
X246.25Y-112.85
T10
X127.68Y-92.07
X150.03Y-78.59
X150.03Y-105.56
T1
X131.605Y-117.85G85X133.215Y-117.85
G05
X144.485Y-117.85G85X146.095Y-117.85
G05
M30
