%TF.GenerationSoftware,KiCad,Pcbnew,9.0.7*%
%TF.CreationDate,2026-03-01T09:34:33+01:00*%
%TF.ProjectId,init_reader,696e6974-5f72-4656-9164-65722e6b6963,rev?*%
%TF.SameCoordinates,Original*%
%TF.FileFunction,Plated,1,2,PTH,Mixed*%
%TF.FilePolarity,Positive*%
%FSLAX46Y46*%
G04 Gerber Fmt 4.6, Leading zero omitted, Abs format (unit mm)*
G04 Created by KiCad (PCBNEW 9.0.7) date 2026-03-01 09:34:33*
%MOMM*%
%LPD*%
G01*
G04 APERTURE LIST*
G04 aperture for slot hole*
%TA.AperFunction,ComponentDrill*%
%ADD10C,0.660000*%
%TD*%
%TA.AperFunction,ComponentDrill*%
%ADD11C,0.750000*%
%TD*%
%TA.AperFunction,ComponentDrill*%
%ADD12C,0.800000*%
%TD*%
%TA.AperFunction,ComponentDrill*%
%ADD13C,0.900000*%
%TD*%
%TA.AperFunction,ViaDrill*%
%ADD14C,1.000000*%
%TD*%
%TA.AperFunction,ComponentDrill*%
%ADD15C,1.000000*%
%TD*%
%TA.AperFunction,ComponentDrill*%
%ADD16C,1.200000*%
%TD*%
%TA.AperFunction,ComponentDrill*%
%ADD17C,2.500000*%
%TD*%
%TA.AperFunction,ComponentDrill*%
%ADD18C,3.200000*%
%TD*%
G04 APERTURE END LIST*
D10*
%TO.C,BT1*%
X133215000Y-117850000D02*
X131605000Y-117850000D01*
X146095000Y-117850000D02*
X144485000Y-117850000D01*
D11*
%TO.C,Q1*%
X178010000Y-44700000D03*
X179280000Y-44700000D03*
X180550000Y-44700000D03*
D12*
%TO.C,U3*%
X161609400Y-53709400D03*
X164149400Y-53709400D03*
X166689400Y-53709400D03*
X169229400Y-53709400D03*
%TO.C,R2*%
X185910000Y-39840000D03*
%TO.C,R3*%
X191490000Y-55730000D03*
%TO.C,R5*%
X192160000Y-77840000D03*
%TO.C,R4*%
X192270000Y-73930000D03*
%TO.C,R6*%
X192410000Y-97590000D03*
%TO.C,R2*%
X193530000Y-39840000D03*
%TO.C,R3*%
X199110000Y-55730000D03*
%TO.C,R5*%
X199780000Y-77840000D03*
%TO.C,R4*%
X199890000Y-73930000D03*
%TO.C,R6*%
X200030000Y-97590000D03*
%TO.C,R9*%
X206530000Y-64280000D03*
X206530000Y-71900000D03*
%TO.C,C1*%
X214280000Y-87840000D03*
X214280000Y-90340000D03*
%TO.C,C4*%
X214280000Y-101840000D03*
X214280000Y-104340000D03*
%TO.C,C2*%
X214324887Y-94840000D03*
X214324887Y-97340000D03*
%TO.C,C3*%
X214530000Y-81295113D03*
X214530000Y-83795113D03*
%TO.C,U2*%
X220160000Y-85840000D03*
X220160000Y-88380000D03*
X220160000Y-90920000D03*
X220160000Y-93460000D03*
X220160000Y-96000000D03*
X220160000Y-98540000D03*
X220160000Y-101080000D03*
X220160000Y-103620000D03*
X227780000Y-85840000D03*
X227780000Y-88380000D03*
X227780000Y-90920000D03*
X227780000Y-93460000D03*
X227780000Y-96000000D03*
X227780000Y-98540000D03*
X227780000Y-101080000D03*
X227780000Y-103620000D03*
%TO.C,R7*%
X238450000Y-106840000D03*
%TO.C,R8*%
X238470000Y-91090000D03*
%TO.C,U4*%
X238530000Y-94220000D03*
X238530000Y-101840000D03*
X241070000Y-94220000D03*
X241070000Y-101840000D03*
%TO.C,R7*%
X246070000Y-106840000D03*
%TO.C,R8*%
X246090000Y-91090000D03*
%TO.C,C5*%
X250724887Y-97190000D03*
X253224887Y-97190000D03*
%TO.C,R1*%
X254120000Y-35820000D03*
X254120000Y-43440000D03*
D13*
%TO.C,D1*%
X206530000Y-74820000D03*
X206530000Y-77360000D03*
%TD*%
D14*
X207570000Y-104210000D03*
X207570000Y-110750000D03*
X230030000Y-36590000D03*
X230030000Y-95840000D03*
X231530000Y-98540000D03*
X232280000Y-38090000D03*
X235530000Y-74590000D03*
X235530000Y-88590000D03*
X250420000Y-48960000D03*
X250420000Y-58310000D03*
X255760000Y-87540000D03*
X255840000Y-82170000D03*
D15*
%TO.C,U5_MT3608*%
X162172000Y-116070000D03*
X162235500Y-85399500D03*
X168966500Y-116260500D03*
%TO.C,BZ1*%
X169030000Y-36990000D03*
X169030000Y-44590000D03*
%TO.C,U5_MT3608*%
X169030000Y-85590000D03*
%TO.C,SW1*%
X186780000Y-43840000D03*
X186780000Y-50340000D03*
%TO.C,SW2*%
X186780000Y-62840000D03*
X186780000Y-69340000D03*
%TO.C,SW3*%
X186780000Y-82840000D03*
X186780000Y-89340000D03*
%TO.C,SW4*%
X186780000Y-101840000D03*
X186780000Y-108340000D03*
%TO.C,SW1*%
X191280000Y-43840000D03*
X191280000Y-50340000D03*
%TO.C,SW2*%
X191280000Y-62840000D03*
X191280000Y-69340000D03*
%TO.C,SW3*%
X191280000Y-82840000D03*
X191280000Y-89340000D03*
%TO.C,SW4*%
X191280000Y-101840000D03*
X191280000Y-108340000D03*
%TO.C,A1*%
X226030000Y-30750000D03*
X226030000Y-33290000D03*
X226030000Y-35830000D03*
X226030000Y-38370000D03*
X226030000Y-40910000D03*
X226030000Y-43450000D03*
X226030000Y-45990000D03*
X226030000Y-48530000D03*
X226030000Y-51070000D03*
X226030000Y-53610000D03*
X226030000Y-56150000D03*
X226030000Y-58690000D03*
X226030000Y-61230000D03*
X226030000Y-63770000D03*
X226030000Y-66310000D03*
X226030000Y-68850000D03*
X226030000Y-71390000D03*
X226030000Y-73930000D03*
X226030000Y-76470000D03*
X226030000Y-79010000D03*
%TO.C,J1*%
X228210000Y-111429669D03*
X229595000Y-114269669D03*
X230980000Y-111429669D03*
X232365000Y-114269669D03*
X233750000Y-111429669D03*
X235135000Y-114269669D03*
X236520000Y-111429669D03*
X237905000Y-114269669D03*
X239290000Y-111429669D03*
%TO.C,A1*%
X243810000Y-30750000D03*
X243810000Y-33290000D03*
X243810000Y-35830000D03*
X243810000Y-38370000D03*
X243810000Y-40910000D03*
X243810000Y-43450000D03*
X243810000Y-45990000D03*
X243810000Y-48530000D03*
X243810000Y-51070000D03*
X243810000Y-53610000D03*
X243810000Y-56150000D03*
X243810000Y-58690000D03*
X243810000Y-61230000D03*
X243810000Y-63770000D03*
X243810000Y-66310000D03*
X243810000Y-68850000D03*
X243810000Y-71390000D03*
X243810000Y-73930000D03*
X243810000Y-76470000D03*
X243810000Y-79010000D03*
D16*
%TO.C,U1*%
X258920000Y-44109340D03*
X258920000Y-46649340D03*
X258920000Y-49189340D03*
X258920000Y-51729340D03*
X258920000Y-54269340D03*
X258920000Y-56809340D03*
X258920000Y-59349340D03*
X258920000Y-61889340D03*
X258920000Y-64429340D03*
X258920000Y-66969340D03*
X258920000Y-69509340D03*
X258920000Y-72049340D03*
X258920000Y-74589340D03*
X258920000Y-77129340D03*
X258920000Y-79669340D03*
X258920000Y-82209340D03*
D17*
X204470000Y-35110000D03*
X204470000Y-117110000D03*
X259470000Y-35110000D03*
X259470000Y-117110000D03*
D18*
%TO.C,J1*%
X221250000Y-112849669D03*
X246250000Y-112849669D03*
M02*
